<svg width="1584" height="396" viewBox="0 0 1584 396" fill="none" xmlns="http://www.w3.org/2000/svg">
<rect width="1584" height="396" fill="#F5F5F5"/>
<g id="Awesome banner" clip-path="url(#clip0_0_1)">
<rect width="1584" height="396" fill="url(#paint0_linear_0_1)"/>
<ellipse id="Ellipse 2" cx="323" cy="64" rx="285" ry="288" fill="url(#paint1_linear_0_1)" fill-opacity="0.1"/>
<g id="copyright">
<path d="M75.95 334.52L72.30 334.52L72.30 311.16L77.20 311.16L83.70 330.04Q83.60 329.02 83.50 327.62Q83.41 326.23 83.33 324.79Q83.25 323.35 83.25 322.23L83.25 311.16L86.90 311.16L86.90 334.52L82 334.52L75.57 315.64Q75.63 316.57 75.73 317.88Q75.82 319.19 75.89 320.57Q75.95 321.94 75.95 323.10L75.95 334.52M98.80 334.84Q96.46 334.84 94.67 333.96Q92.88 333.08 91.89 331.53Q90.90 329.98 90.90 327.93Q90.90 325.78 92.13 324.18Q93.36 322.58 95.34 322.17L95.34 322.10Q93.65 321.75 92.61 320.38Q91.57 319 91.57 317.11Q91.57 315.26 92.48 313.85Q93.39 312.44 95.02 311.64Q96.66 310.84 98.80 310.84Q100.94 310.84 102.59 311.64Q104.24 312.44 105.15 313.85Q106.06 315.26 106.06 317.11Q106.06 319 105.01 320.38Q103.95 321.75 102.26 322.10L102.26 322.17Q104.24 322.58 105.47 324.18Q106.70 325.78 106.70 327.93Q106.70 329.98 105.71 331.53Q104.72 333.08 102.93 333.96Q101.14 334.84 98.80 334.84M98.80 320.73Q100.30 320.73 101.23 319.82Q102.16 318.90 102.16 317.46Q102.16 315.99 101.23 315.08Q100.30 314.17 98.80 314.17Q97.30 314.17 96.37 315.08Q95.44 315.99 95.44 317.46Q95.44 318.90 96.37 319.82Q97.30 320.73 98.80 320.73M98.80 331.45Q100.56 331.45 101.68 330.42Q102.80 329.40 102.80 327.74Q102.80 326.04 101.68 325Q100.56 323.96 98.80 323.96Q97.04 323.96 95.92 325Q94.80 326.04 94.80 327.74Q94.80 329.40 95.92 330.42Q97.04 331.45 98.80 331.45M114.35 334.52L110.70 334.52L110.70 311.16L115.60 311.16L122.10 330.04Q122 329.02 121.90 327.62Q121.81 326.23 121.73 324.79Q121.65 323.35 121.65 322.23L121.65 311.16L125.30 311.16L125.30 334.52L120.40 334.52L113.97 315.64Q114.03 316.57 114.13 317.88Q114.22 319.19 114.29 320.57Q114.35 321.94 114.35 323.10" fill="white" fill-opacity="0.9"/>
<path d="M161.48 325.24L151.24 325.24L151.24 322.68L161.48 322.68" fill="white" fill-opacity="0.9"/>
<path d="M195.02 334.84Q191.82 334.84 189.96 333.05Q188.11 331.26 188.11 328.12L188.11 317.56Q188.11 314.42 189.96 312.63Q191.82 310.84 195.02 310.84Q198.15 310.84 200.01 312.65Q201.87 314.46 201.87 317.56L198.99 317.56Q198.99 315.58 197.95 314.50Q196.91 313.43 195.02 313.43Q193.13 313.43 192.06 314.50Q190.99 315.58 190.99 317.56L190.99 328.12Q190.99 330.10 192.06 331.18Q193.13 332.25 195.02 332.25Q196.91 332.25 197.95 331.18Q198.99 330.10 198.99 328.12L201.87 328.12Q201.87 331.22 200.01 333.03Q198.15 334.84 195.02 334.84" fill="white" fill-opacity="0.9"/>
<path d="M213.96 334.84Q210.83 334.84 209 333.02Q207.18 331.19 207.18 327.80L207.18 317.88Q207.18 314.49 209 312.66Q210.83 310.84 213.96 310.84Q217.10 310.84 218.92 312.66Q220.75 314.49 220.75 317.85L220.75 327.80Q220.75 331.19 218.92 333.02Q217.10 334.84 213.96 334.84M213.96 332.25Q215.85 332.25 216.86 331.18Q217.87 330.10 217.87 328.12L217.87 317.56Q217.87 315.58 216.86 314.50Q215.85 313.43 213.96 313.43Q212.11 313.43 211.08 314.50Q210.06 315.58 210.06 317.56L210.06 328.12Q210.06 330.10 211.08 331.18Q212.11 332.25 213.96 332.25" fill="white" fill-opacity="0.9"/>
<path d="M228.65 334.52L225.87 334.52L225.87 311.16L230.12 311.16L233.10 321.27L236.20 311.16L240.46 311.16L240.46 334.52L237.67 334.52L237.67 323.48Q237.67 321.91 237.72 319.88Q237.77 317.85 237.87 315.77Q237.96 313.69 238.09 312.02L234.31 324.09L231.82 324.09L228.20 312.31Q228.46 314.68 228.55 317.50Q228.65 320.31 228.65 323.48" fill="white" fill-opacity="0.9"/>
<path d="M247.85 334.52L245.07 334.52L245.07 311.16L249.32 311.16L252.30 321.27L255.40 311.16L259.66 311.16L259.66 334.52L256.87 334.52L256.87 323.48Q256.87 321.91 256.92 319.88Q256.97 317.85 257.07 315.77Q257.16 313.69 257.29 312.02L253.51 324.09L251.02 324.09L247.40 312.31Q247.66 314.68 247.75 317.50Q247.85 320.31 247.85 323.48" fill="white" fill-opacity="0.9"/>
<path d="M271.56 334.84Q268.30 334.84 266.57 333.03Q264.84 331.22 264.84 328.12L264.84 311.16L267.72 311.16L267.72 328.12Q267.72 330.04 268.67 331.16Q269.61 332.28 271.56 332.28Q273.48 332.28 274.44 331.16Q275.40 330.04 275.40 328.12L275.40 311.16L278.28 311.16L278.28 328.12Q278.28 331.26 276.57 333.05Q274.86 334.84 271.56 334.84" fill="white" fill-opacity="0.9"/>
<path d="M286.83 334.52L284.04 334.52L284.04 311.16L287.88 311.16L295.02 331.16Q294.95 330.36 294.87 329.19Q294.79 328.02 294.75 326.73Q294.70 325.43 294.70 324.28L294.70 311.16L297.48 311.16L297.48 334.52L293.64 334.52L286.54 314.52Q286.60 315.29 286.67 316.46Q286.73 317.62 286.78 318.92Q286.83 320.22 286.83 321.40" fill="white" fill-opacity="0.9"/>
<path d="M316.20 334.52L303.72 334.52L303.72 331.90L308.49 331.90L308.49 313.78L303.72 313.78L303.72 311.16L316.20 311.16L316.20 313.78L311.43 313.78L311.43 331.90L316.20 331.90" fill="white" fill-opacity="0.9"/>
<path d="M330.60 334.52L327.72 334.52L327.72 313.78L321.32 313.78L321.32 311.16L337 311.16L337 313.78L330.60 313.78" fill="white" fill-opacity="0.9"/>
<path d="M349.80 334.52L346.92 334.52L346.92 325.78L339.88 311.16L342.95 311.16L347.50 320.76Q347.88 321.56 348.11 322.12Q348.33 322.68 348.39 322.94Q348.46 322.68 348.70 322.12Q348.94 321.56 349.32 320.76L353.87 311.16L356.84 311.16L349.80 325.78" fill="white" fill-opacity="0.9"/>
<path d="M382.83 334.52L380.04 334.52L380.04 311.16L383.88 311.16L391.02 331.16Q390.95 330.36 390.87 329.19Q390.79 328.02 390.75 326.73Q390.70 325.43 390.70 324.28L390.70 311.16L393.48 311.16L393.48 334.52L389.64 334.52L382.54 314.52Q382.60 315.29 382.67 316.46Q382.73 317.62 382.78 318.92Q382.83 320.22 382.83 321.40" fill="white" fill-opacity="0.9"/>
<path d="M405.96 334.84Q402.83 334.84 401 333.02Q399.18 331.19 399.18 327.80L399.18 317.88Q399.18 314.49 401 312.66Q402.83 310.84 405.96 310.84Q409.10 310.84 410.92 312.66Q412.75 314.49 412.75 317.85L412.75 327.80Q412.75 331.19 410.92 333.02Q409.10 334.84 405.96 334.84M405.96 332.25Q407.85 332.25 408.86 331.18Q409.87 330.10 409.87 328.12L409.87 317.56Q409.87 315.58 408.86 314.50Q407.85 313.43 405.96 313.43Q404.11 313.43 403.08 314.50Q402.06 315.58 402.06 317.56L402.06 328.12Q402.06 330.10 403.08 331.18Q404.11 332.25 405.96 332.25" fill="white" fill-opacity="0.9"/>
<path d="M424.55 334.52L418.51 334.52L418.51 311.16L424.55 311.16Q426.83 311.16 428.47 312.02Q430.12 312.89 431.03 314.46Q431.95 316.02 431.95 318.17L431.95 327.48Q431.95 329.62 431.03 331.21Q430.12 332.79 428.47 333.66Q426.83 334.52 424.55 334.52M421.39 313.72L421.39 331.96L424.55 331.96Q426.67 331.96 427.87 330.78Q429.07 329.59 429.07 327.48L429.07 318.17Q429.07 316.09 427.87 314.90Q426.67 313.72 424.55 313.72" fill="white" fill-opacity="0.9"/>
<path d="M451.40 334.52L437.96 334.52L437.96 311.16L451.40 311.16L451.40 313.78L440.81 313.78L440.81 321.02L450.28 321.02L450.28 323.58L440.81 323.58L440.81 331.90L451.40 331.90" fill="white" fill-opacity="0.9"/>
<path d="M463.69 334.84Q460.30 334.84 458.28 333.05Q456.27 331.26 456.27 328.12L459.15 328.12Q459.15 330.07 460.39 331.18Q461.64 332.28 463.69 332.28Q465.67 332.28 466.86 331.13Q468.04 329.98 468.04 328.12Q468.04 326.71 467.29 325.67Q466.54 324.63 465.13 324.25L461.58 323.26Q459.37 322.62 458.11 320.97Q456.84 319.32 456.84 317.08Q456.84 315.22 457.67 313.82Q458.51 312.41 460.01 311.62Q461.51 310.84 463.47 310.84Q465.45 310.84 466.97 311.62Q468.49 312.41 469.35 313.80Q470.22 315.19 470.22 317.02L467.34 317.02Q467.34 315.42 466.25 314.41Q465.16 313.40 463.47 313.40Q461.77 313.40 460.71 314.41Q459.66 315.42 459.66 317.02Q459.66 318.30 460.35 319.21Q461.03 320.12 462.28 320.47L465.93 321.50Q468.27 322.14 469.56 323.91Q470.86 325.69 470.86 328.12Q470.86 331.19 468.91 333.02Q466.95 334.84 463.69 334.84" fill="white" fill-opacity="0.9"/>
</g>
<path d="M74.37 197.64L72.21 197.64L72.21 180.12L74.37 180.12L74.37 187.66L76.96 187.66L80.85 180.12L83.20 180.12L78.86 188.57L83.44 197.64L80.97 197.64L76.89 189.55L74.37 189.55" fill="white" fill-opacity="0.7"/>
<path d="M91.70 197.88Q89.15 197.88 87.64 196.54Q86.13 195.19 86.13 192.84L88.29 192.84Q88.29 194.30 89.22 195.13Q90.16 195.96 91.70 195.96Q93.18 195.96 94.07 195.10Q94.96 194.23 94.96 192.84Q94.96 191.78 94.40 191Q93.83 190.22 92.78 189.94L90.11 189.19Q88.46 188.71 87.51 187.48Q86.56 186.24 86.56 184.56Q86.56 183.17 87.18 182.11Q87.81 181.06 88.94 180.47Q90.06 179.88 91.53 179.88Q93.02 179.88 94.16 180.47Q95.30 181.06 95.94 182.10Q96.59 183.14 96.59 184.51L94.43 184.51Q94.43 183.31 93.62 182.56Q92.80 181.80 91.53 181.80Q90.26 181.80 89.46 182.56Q88.67 183.31 88.67 184.51Q88.67 185.47 89.19 186.16Q89.70 186.84 90.64 187.10L93.38 187.87Q95.13 188.35 96.10 189.68Q97.07 191.02 97.07 192.84Q97.07 195.14 95.61 196.51Q94.14 197.88 91.70 197.88" fill="white" fill-opacity="0.7"/>
<path d="M111.28 197.64L101.20 197.64L101.20 180.12L111.28 180.12L111.28 182.09L103.34 182.09L103.34 187.51L110.44 187.51L110.44 189.43L103.34 189.43L103.34 195.67L111.28 195.67" fill="white" fill-opacity="0.7"/>
<path d="M125.68 197.64L115.60 197.64L115.60 180.12L125.68 180.12L125.68 182.09L117.74 182.09L117.74 187.51L124.84 187.51L124.84 189.43L117.74 189.43L117.74 195.67L125.68 195.67" fill="white" fill-opacity="0.7"/>
<path d="M135.16 197.64L129.83 197.64L129.83 180.12L134.80 180.12Q137.20 180.12 138.56 181.32Q139.91 182.52 139.91 184.66Q139.91 186 139.06 187.08Q138.21 188.16 136.84 188.42L136.84 188.50Q137.87 188.62 138.65 189.22Q139.43 189.82 139.88 190.74Q140.32 191.66 140.32 192.77Q140.32 195.02 138.94 196.33Q137.56 197.64 135.16 197.64M131.94 182.06L131.94 187.58L134.78 187.58Q136.17 187.58 136.97 186.84Q137.78 186.10 137.78 184.82Q137.78 183.55 136.98 182.81Q136.19 182.06 134.80 182.06L131.94 182.06M131.94 189.46L131.94 195.70L134.92 195.70Q136.43 195.70 137.31 194.89Q138.18 194.09 138.18 192.70Q138.18 191.26 137.31 190.36Q136.43 189.46 134.92 189.46" fill="white" fill-opacity="0.7"/>
<path d="M169.72 197.64L158.44 197.64L158.44 195.67L163.12 195.67L163.12 186.41L158.92 186.41L158.92 184.44L165.28 184.44L165.28 195.67L169.72 195.67L169.72 197.64M163.96 182.06Q163.17 182.06 162.71 181.66Q162.26 181.25 162.26 180.55Q162.26 179.83 162.71 179.41Q163.17 178.99 163.96 178.99Q164.75 178.99 165.21 179.41Q165.66 179.83 165.66 180.55Q165.66 181.25 165.21 181.66Q164.75 182.06 163.96 182.06" fill="white" fill-opacity="0.7"/>
<path d="M178.53 197.83L177.47 197.83Q175.26 197.83 174.05 196.84Q172.84 195.84 172.84 194.02LNaN 194.02QNaN 194.93 175.65 195.44Q176.30 195.96 177.47 195.96L178.53 195.96Q179.73 195.96 180.39 195.43Q181.05 194.90 181.05 193.94Q181.05 192.24 179.49 192.02L175.84 191.50Q174.50 191.30 173.75 190.38Q173.01 189.46 173.01 187.94Q173.01 186.22 174.20 185.23Q175.38 184.25 177.47 184.25L178.53 184.25Q180.45 184.25 181.66 185.20Q182.87 186.14 182.97 187.68L180.78 187.68Q180.74 186.98 180.12 186.53Q179.51 186.07 178.53 186.07L177.47 186.07Q176.37 186.07 175.74 186.58Q175.12 187.08 175.12 187.94Q175.12 189.34 176.39 189.53L179.80 190.01Q183.16 190.49 183.16 193.94Q183.16 195.79 181.95 196.81Q180.74 197.83 178.53 197.83" fill="white" fill-opacity="0.7"/>
<path d="M192.93 197.83L191.87 197.83Q189.66 197.83 188.45 196.84Q187.24 195.84 187.24 194.02L189.40 194.02Q189.40 194.93 190.05 195.44Q190.70 195.96 191.87 195.96L192.93 195.96Q194.13 195.96 194.79 195.43Q195.45 194.90 195.45 193.94Q195.45 192.24 193.89 192.02L190.24 191.50Q188.90 191.30 188.15 190.38Q187.41 189.46 187.41 187.94Q187.41 186.22 188.60 185.23Q189.78 184.25 191.87 184.25L192.93 184.25Q194.85 184.25 196.06 185.20Q197.27 186.14 197.37 187.68L195.18 187.68Q195.14 186.98 194.52 186.53Q193.91 186.07 192.93 186.07L191.87 186.07Q190.77 186.07 190.14 186.58Q189.52 187.08 189.52 187.94Q189.52 189.34 190.79 189.53L194.20 190.01Q197.56 190.49 197.56 193.94Q197.56 195.79 196.35 196.81Q195.14 197.83 192.93 197.83" fill="white" fill-opacity="0.7"/>
<path d="M206.78 197.88Q204.50 197.88 203.13 196.52Q201.76 195.17 201.76 192.84L201.76 184.44L203.92 184.44L203.92 192.84Q203.92 194.28 204.69 195.13Q205.46 195.98 206.78 195.98Q208.12 195.98 208.90 195.13Q209.68 194.28 209.68 192.84L209.68 184.44L211.84 184.44L211.84 192.84Q211.84 195.17 210.45 196.52Q209.06 197.88 206.78 197.88" fill="white" fill-opacity="0.7"/>
<path d="M221.20 197.88Q218.87 197.88 217.44 196.48Q216.02 195.07 216.02 192.60L216.02 189.48Q216.02 187.01 217.44 185.60Q218.87 184.20 221.20 184.20Q222.76 184.20 223.92 184.82Q225.09 185.45 225.74 186.58Q226.38 187.70 226.38 189.24L226.38 191.59L218.13 191.59L218.13 192.84Q218.13 194.30 218.97 195.16Q219.81 196.01 221.20 196.01Q222.40 196.01 223.18 195.54Q223.96 195.07 224.13 194.28L226.29 194.28Q226.07 195.94 224.68 196.91Q223.29 197.88 221.20 197.88M218.13 189.24L218.13 189.91L224.27 189.91L224.27 189.24Q224.27 187.68 223.47 186.83Q222.66 185.98 221.20 185.98Q219.74 185.98 218.93 186.83Q218.13 187.68 218.13 189.24" fill="white" fill-opacity="0.7"/>
<path d="M236.13 197.83L235.07 197.83Q232.86 197.83 231.65 196.84Q230.44 195.84 230.44 194.02L232.60 194.02Q232.60 194.93 233.25 195.44Q233.90 195.96 235.07 195.96L236.13 195.96Q237.33 195.96 237.99 195.43Q238.65 194.90 238.65 193.94Q238.65 192.24 237.09 192.02L233.44 191.50Q232.10 191.30 231.35 190.38Q230.61 189.46 230.61 187.94Q230.61 186.22 231.80 185.23Q232.98 184.25 235.07 184.25L236.13 184.25Q238.05 184.25 239.26 185.20Q240.47 186.14 240.57 187.68L238.38 187.68Q238.34 186.98 237.72 186.53Q237.11 186.07 236.13 186.07L235.07 186.07Q233.97 186.07 233.34 186.58Q232.72 187.08 232.72 187.94Q232.72 189.34 233.99 189.53L237.40 190.01Q240.76 190.49 240.76 193.94Q240.76 195.79 239.55 196.81Q238.34 197.83 236.13 197.83" fill="white" fill-opacity="0.7"/>
<path d="M264.50 197.88Q261.95 197.88 260.44 196.54Q258.93 195.19 258.93 192.84L261.09 192.84Q261.09 194.30 262.02 195.13Q262.96 195.96 264.50 195.96Q265.98 195.96 266.87 195.10Q267.76 194.23 267.76 192.84Q267.76 191.78 267.20 191Q266.63 190.22 265.58 189.94L262.91 189.19Q261.26 188.71 260.31 187.48Q259.36 186.24 259.36 184.56Q259.36 183.17 259.98 182.11Q260.61 181.06 261.74 180.47Q262.86 179.88 264.33 179.88Q265.82 179.88 266.96 180.47Q268.10 181.06 268.74 182.10Q269.39 183.14 269.39 184.51L267.23 184.51Q267.23 183.31 266.42 182.56Q265.60 181.80 264.33 181.80Q263.06 181.80 262.26 182.56Q261.47 183.31 261.47 184.51Q261.47 185.47 261.99 186.16Q262.50 186.84 263.44 187.10L266.18 187.87Q267.93 188.35 268.90 189.68Q269.87 191.02 269.87 192.84Q269.87 195.14 268.41 196.51Q266.94 197.88 264.50 197.88" fill="white" fill-opacity="0.7"/>
<path d="M278.90 197.88Q276.35 197.88 274.84 196.54Q273.33 195.19 273.33 192.84L275.49 192.84Q275.49 194.30 276.42 195.13Q277.36 195.96 278.90 195.96Q280.38 195.96 281.27 195.10Q282.16 194.23 282.16 192.84Q282.16 191.78 281.60 191Q281.03 190.22 279.98 189.94L277.31 189.19Q275.66 188.71 274.71 187.48Q273.76 186.24 273.76 184.56Q273.76 183.17 274.38 182.11Q275.01 181.06 276.14 180.47Q277.26 179.88 278.73 179.88Q280.22 179.88 281.36 180.47Q282.50 181.06 283.14 182.10Q283.79 183.14 283.79 184.51L281.63 184.51Q281.63 183.31 280.82 182.56Q280 181.80 278.73 181.80Q277.46 181.80 276.66 182.56Q275.87 183.31 275.87 184.51Q275.87 185.47 276.39 186.16Q276.90 186.84 277.84 187.10L280.58 187.87Q282.33 188.35 283.30 189.68Q284.27 191.02 284.27 192.84Q284.27 195.14 282.81 196.51Q281.34 197.88 278.90 197.88" fill="white" fill-opacity="0.7"/>
<path d="M299.20 197.64L289.12 197.64L289.12 180.12L291.28 180.12L291.28 195.67L299.20 195.67" fill="white" fill-opacity="0.7"/>
<path d="M307.79 197.88Q305.39 197.88 304 196.54Q302.61 195.19 302.61 192.84L302.61 184.92Q302.61 182.57 304 181.22Q305.39 179.88 307.79 179.88Q310.14 179.88 311.54 181.24Q312.93 182.59 312.93 184.92L310.77 184.92Q310.77 183.43 309.99 182.63Q309.21 181.82 307.79 181.82Q306.38 181.82 305.57 182.63Q304.77 183.43 304.77 184.92L304.77 192.84Q304.77 194.33 305.57 195.13Q306.38 195.94 307.79 195.94Q309.21 195.94 309.99 195.13Q310.77 194.33 310.77 192.84L312.93 192.84Q312.93 195.17 311.54 196.52Q310.14 197.88 307.79 197.88" fill="white" fill-opacity="0.7"/>
<path d="M333.57 201.96L331.41 201.96L331.41 184.44L333.57 184.44L333.57 186.96L333.59 186.96Q333.76 185.66 334.72 184.93Q335.68 184.20 337.17 184.20Q339.16 184.20 340.34 185.51Q341.51 186.82 341.51 189.10L341.51 192.96Q341.51 195.24 340.34 196.56Q339.16 197.88 337.17 197.88Q335.68 197.88 334.72 197.14Q333.76 196.39 333.59 195.12L333.52 195.12L333.57 198.12L333.57 201.96M336.45 196.01Q337.82 196.01 338.58 195.29Q339.35 194.57 339.35 192.96L339.35 189.12Q339.35 187.49 338.58 186.78Q337.82 186.07 336.45 186.07Q335.13 186.07 334.35 186.91Q333.57 187.75 333.57 189.24L333.57 192.84Q333.57 194.33 334.35 195.17Q335.13 196.01 336.45 196.01" fill="white" fill-opacity="0.7"/>
<path d="M349.65 197.88Q347.61 197.88 346.41 196.74Q345.21 195.60 345.21 193.75Q345.21 192.53 345.76 191.62Q346.31 190.70 347.30 190.19Q348.28 189.67 349.55 189.67L353.63 189.67L353.63 188.64Q353.63 186.07 350.82 186.07Q349.58 186.07 348.81 186.53Q348.04 186.98 347.99 187.80L345.83 187.80Q345.95 186.24 347.28 185.22Q348.62 184.20 350.82 184.20Q353.22 184.20 354.51 185.35Q355.79 186.50 355.79 188.57L355.79 197.64L353.66 197.64L353.66 195.24L353.61 195.24Q353.42 196.46 352.38 197.17Q351.35 197.88 349.65 197.88M350.18 196.06Q351.76 196.06 352.70 195.29Q353.63 194.52 353.63 193.20L353.63 191.35L349.79 191.35Q348.74 191.35 348.08 191.99Q347.42 192.62 347.42 193.68Q347.42 194.78 348.15 195.42Q348.88 196.06 350.18 196.06" fill="white" fill-opacity="0.7"/>
<path d="M365.73 197.83L364.67 197.83Q362.46 197.83 361.25 196.84Q360.04 195.84 360.04 194.02L362.20 194.02Q362.20 194.93 362.85 195.44Q363.50 195.96 364.67 195.96L365.73 195.96Q366.93 195.96 367.59 195.43Q368.25 194.90 368.25 193.94Q368.25 192.24 366.69 192.02L363.04 191.50Q361.70 191.30 360.95 190.38Q360.21 189.46 360.21 187.94Q360.21 186.22 361.40 185.23Q362.58 184.25 364.67 184.25L365.73 184.25Q367.65 184.25 368.86 185.20Q370.07 186.14 370.17 187.68L367.98 187.68Q367.94 186.98 367.32 186.53Q366.71 186.07 365.73 186.07L364.67 186.07Q363.57 186.07 362.94 186.58Q362.32 187.08 362.32 187.94Q362.32 189.34 363.59 189.53L367 190.01Q370.36 190.49 370.36 193.94Q370.36 195.79 369.15 196.81Q367.94 197.83 365.73 197.83" fill="white" fill-opacity="0.7"/>
<path d="M380.13 197.83L379.07 197.83Q376.86 197.83 375.65 196.84Q374.44 195.84 374.44 194.02L376.60 194.02Q376.60 194.93 377.25 195.44Q377.90 195.96 379.07 195.96L380.13 195.96Q381.33 195.96 381.99 195.43Q382.65 194.90 382.65 193.94Q382.65 192.24 381.09 192.02L377.44 191.50Q376.10 191.30 375.35 190.38Q374.61 189.46 374.61 187.94Q374.61 186.22 375.80 185.23Q376.98 184.25 379.07 184.25L380.13 184.25Q382.05 184.25 383.26 185.20Q384.47 186.14 384.57 187.68L382.38 187.68Q382.34 186.98 381.72 186.53Q381.11 186.07 380.13 186.07L379.07 186.07Q377.97 186.07 377.34 186.58Q376.72 187.08 376.72 187.94Q376.72 189.34 377.99 189.53L381.40 190.01Q384.76 190.49 384.76 193.94Q384.76 195.79 383.55 196.81Q382.34 197.83 380.13 197.83" fill="white" fill-opacity="0.7"/>
<path d="M400.12 197.64L388.84 197.64L388.84 195.67L393.52 195.67L393.52 186.41L389.32 186.41L389.32 184.44L395.68 184.44L395.68 195.67L400.12 195.67L400.12 197.64M394.36 182.06Q393.57 182.06 393.11 181.66Q392.66 181.25 392.66 180.55Q392.66 179.83 393.11 179.41Q393.57 178.99 394.36 178.99Q395.15 178.99 395.61 179.41Q396.06 179.83 396.06 180.55Q396.06 181.25 395.61 181.66Q395.15 182.06 394.36 182.06" fill="white" fill-opacity="0.7"/>
<path d="M405.57 197.64L403.41 197.64L403.41 184.44L405.57 184.44L405.57 186.96L405.59 186.96Q405.76 185.64 406.67 184.92Q407.58 184.20 409.10 184.20Q411.09 184.20 412.26 185.42Q413.44 186.65 413.44 188.76L413.44 197.64L411.28 197.64L411.28 189.14Q411.28 187.63 410.52 186.83Q409.77 186.02 408.47 186.02Q407.13 186.02 406.35 186.86Q405.57 187.70 405.57 189.24" fill="white" fill-opacity="0.7"/>
<path d="M423.16 201.96L419.46 201.96L419.46 199.99L423.18 199.99Q424.31 199.99 424.96 199.36Q425.61 198.72 425.61 197.64L425.61 196.44L425.66 194.28L425.58 194.28Q425.39 195.46 424.46 196.09Q423.52 196.73 422.10 196.73Q420.06 196.73 418.89 195.43Q417.71 194.14 417.71 191.88L417.71 189.10Q417.71 186.84 418.89 185.52Q420.06 184.20 422.10 184.20Q423.52 184.20 424.46 184.87Q425.39 185.54 425.58 186.72L425.63 186.72L425.63 184.44L427.77 184.44L427.77 197.64Q427.77 199.63 426.53 200.80Q425.30 201.96 423.16 201.96M422.75 194.93Q424.10 194.93 424.86 194.09Q425.63 193.25 425.63 191.76L425.63 189.24Q425.63 187.75 424.86 186.91Q424.10 186.07 422.75 186.07Q421.38 186.07 420.63 186.86Q419.87 187.66 419.87 189L419.87 192Q419.87 193.34 420.63 194.14Q421.38 194.93 422.75 194.93" fill="white" fill-opacity="0.7"/>
<path d="M451.79 197.88Q449.39 197.88 447.95 196.54Q446.51 195.19 446.51 192.84L446.51 189.24Q446.51 186.89 447.95 185.54Q449.39 184.20 451.79 184.20Q454.07 184.20 455.48 185.42Q456.88 186.65 456.95 188.76L454.79 188.76Q454.72 187.49 453.93 186.80Q453.14 186.12 451.79 186.12Q450.38 186.12 449.52 186.92Q448.67 187.73 448.67 189.22L448.67 192.84Q448.67 194.33 449.52 195.14Q450.38 195.96 451.79 195.96Q453.14 195.96 453.93 195.26Q454.72 194.57 454.79 193.32L456.95 193.32Q456.88 195.43 455.48 196.66Q454.07 197.88 451.79 197.88" fill="white" fill-opacity="0.7"/>
<path d="M466 197.88Q463.67 197.88 462.24 196.48Q460.82 195.07 460.82 192.60L460.82 189.48Q460.82 187.01 462.24 185.60Q463.67 184.20 466 184.20Q467.56 184.20 468.72 184.82Q469.89 185.45 470.54 186.58Q471.18 187.70 471.18 189.24L471.18 191.59L462.93 191.59L462.93 192.84Q462.93 194.30 463.77 195.16Q464.61 196.01 466 196.01Q467.20 196.01 467.98 195.54Q468.76 195.07 468.93 194.28L471.09 194.28Q470.87 195.94 469.48 196.91Q468.09 197.88 466 197.88M462.93 189.24L462.93 189.91L469.07 189.91L469.07 189.24Q469.07 187.68 468.27 186.83Q467.46 185.98 466 185.98Q464.54 185.98 463.73 186.83Q462.93 187.68 462.93 189.24" fill="white" fill-opacity="0.7"/>
<path d="M478.05 197.64L475.89 197.64L475.89 184.44L478.05 184.44L478.05 186.96L478.10 186.96Q478.26 185.69 479.18 184.94Q480.09 184.20 481.62 184.20Q483.69 184.20 484.80 185.44Q485.92 186.67 485.92 188.95L485.92 190.08L483.76 190.08L483.76 188.95Q483.76 186.07 480.95 186.07Q479.54 186.07 478.79 186.89Q478.05 187.70 478.05 189.24" fill="white" fill-opacity="0.7"/>
<path d="M499.96 197.64L496.12 197.64Q494.49 197.64 493.50 196.69Q492.52 195.74 492.52 194.16L492.52 186.41L488.73 186.41L488.73 184.44L492.52 184.44L492.52 180.72L494.68 180.72L494.68 184.44L500.08 184.44L500.08 186.41L494.68 186.41L494.68 194.16Q494.68 194.83 495.08 195.25Q495.47 195.67 496.12 195.67L499.96 195.67" fill="white" fill-opacity="0.7"/>
<path d="M515.32 197.64L504.04 197.64L504.04 195.67L508.72 195.67L508.72 186.41L504.52 186.41L504.52 184.44L510.88 184.44L510.88 195.67L515.32 195.67L515.32 197.64M509.56 182.06Q508.77 182.06 508.31 181.66Q507.86 181.25 507.86 180.55Q507.86 179.83 508.31 179.41Q508.77 178.99 509.56 178.99Q510.35 178.99 510.81 179.41Q511.26 179.83 511.26 180.55Q511.26 181.25 510.81 181.66Q510.35 182.06 509.56 182.06" fill="white" fill-opacity="0.7"/>
<path d="M523.72 197.64L521.56 197.64L521.56 188.21L517.72 188.21L517.72 186.24L521.56 186.24L521.56 183.48Q521.56 181.92 522.54 181.02Q523.53 180.12 525.26 180.12L529.12 180.12L529.12 182.09L525.26 182.09Q523.72 182.09 523.72 183.48L523.72 186.24L529.12 186.24L529.12 188.21L523.72 188.21" fill="white" fill-opacity="0.7"/>
<path d="M544.12 197.64L532.84 197.64L532.84 195.67L537.52 195.67L537.52 186.41L533.32 186.41L533.32 184.44L539.68 184.44L539.68 195.67L544.12 195.67L544.12 197.64M538.36 182.06Q537.57 182.06 537.11 181.66Q536.66 181.25 536.66 180.55Q536.66 179.83 537.11 179.41Q537.57 178.99 538.36 178.99Q539.15 178.99 539.61 179.41Q540.06 179.83 540.06 180.55Q540.06 181.25 539.61 181.66Q539.15 182.06 538.36 182.06" fill="white" fill-opacity="0.7"/>
<path d="M552.59 197.88Q550.19 197.88 548.75 196.54Q547.31 195.19 547.31 192.84L547.31 189.24Q547.31 186.89 548.75 185.54Q550.19 184.20 552.59 184.20Q554.87 184.20 556.28 185.42Q557.68 186.65 557.75 188.76L555.59 188.76Q555.52 187.49 554.73 186.80Q553.94 186.12 552.59 186.12Q551.18 186.12 550.32 186.92Q549.47 187.73 549.47 189.22L549.47 192.84Q549.47 194.33 550.32 195.14Q551.18 195.96 552.59 195.96Q553.94 195.96 554.73 195.26Q555.52 194.57 555.59 193.32L557.75 193.32Q557.68 195.43 556.28 196.66Q554.87 197.88 552.59 197.88" fill="white" fill-opacity="0.7"/>
<path d="M565.65 197.88Q563.61 197.88 562.41 196.74Q561.21 195.60 561.21 193.75Q561.21 192.53 561.76 191.62Q562.31 190.70 563.30 190.19Q564.28 189.67 565.55 189.67L569.63 189.67L569.63 188.64Q569.63 186.07 566.82 186.07Q565.58 186.07 564.81 186.53Q564.04 186.98 563.99 187.80L561.83 187.80Q561.95 186.24 563.28 185.22Q564.62 184.20 566.82 184.20Q569.22 184.20 570.51 185.35Q571.79 186.50 571.79 188.57L571.79 197.64L569.66 197.64L569.66 195.24L569.61 195.24Q569.42 196.46 568.38 197.17Q567.35 197.88 565.65 197.88M566.18 196.06Q567.76 196.06 568.70 195.29Q569.63 194.52 569.63 193.20L569.63 191.35L565.79 191.35Q564.74 191.35 564.08 191.99Q563.42 192.62 563.42 193.68Q563.42 194.78 564.15 195.42Q564.88 196.06 566.18 196.06" fill="white" fill-opacity="0.7"/>
<path d="M586.36 197.64L582.52 197.64Q580.89 197.64 579.90 196.69Q578.92 195.74 578.92 194.16L578.92 186.41L575.13 186.41L575.13 184.44L578.92 184.44L578.92 180.72L581.08 180.72L581.08 184.44L586.48 184.44L586.48 186.41L581.08 186.41L581.08 194.16Q581.08 194.83 581.48 195.25Q581.87 195.67 582.52 195.67L586.36 195.67" fill="white" fill-opacity="0.7"/>
<path d="M595.60 197.88Q593.27 197.88 591.84 196.48Q590.42 195.07 590.42 192.60L590.42 189.48Q590.42 187.01 591.84 185.60Q593.27 184.20 595.60 184.20Q597.16 184.20 598.32 184.82Q599.49 185.45 600.14 186.58Q600.78 187.70 600.78 189.24L600.78 191.59L592.53 191.59L592.53 192.84Q592.53 194.30 593.37 195.16Q594.21 196.01 595.60 196.01Q596.80 196.01 597.58 195.54Q598.36 195.07 598.53 194.28L600.69 194.28Q600.47 195.94 599.08 196.91Q597.69 197.88 595.60 197.88M592.53 189.24L592.53 189.91L598.67 189.91L598.67 189.24Q598.67 187.68 597.87 186.83Q597.06 185.98 595.60 185.98Q594.14 185.98 593.33 186.83Q592.53 187.68 592.53 189.24" fill="white" fill-opacity="0.7"/>
<path d="M610.53 197.83L609.47 197.83Q607.26 197.83 606.05 196.84Q604.84 195.84 604.84 194.02L607 194.02Q607 194.93 607.65 195.44Q608.30 195.96 609.47 195.96L610.53 195.96Q611.73 195.96 612.39 195.43Q613.05 194.90 613.05 193.94Q613.05 192.24 611.49 192.02L607.84 191.50Q606.50 191.30 605.75 190.38Q605.01 189.46 605.01 187.94Q605.01 186.22 606.20 185.23Q607.38 184.25 609.47 184.25L610.53 184.25Q612.45 184.25 613.66 185.20Q614.87 186.14 614.97 187.68L612.78 187.68Q612.74 186.98 612.12 186.53Q611.51 186.07 610.53 186.07L609.47 186.07Q608.37 186.07 607.74 186.58Q607.12 187.08 607.12 187.94Q607.12 189.34 608.39 189.53L611.80 190.01Q615.16 190.49 615.16 193.94Q615.16 195.79 613.95 196.81Q612.74 197.83 610.53 197.83" fill="white" fill-opacity="0.7"/>
<path d="M638.92 197.64L636.76 197.64L636.76 188.21L632.92 188.21L632.92 186.24L636.76 186.24L636.76 183.48Q636.76 181.92 637.74 181.02Q638.73 180.12 640.46 180.12L644.32 180.12L644.32 182.09L640.46 182.09Q638.92 182.09 638.92 183.48L638.92 186.24L644.32 186.24L644.32 188.21L638.92 188.21" fill="white" fill-opacity="0.7"/>
<path d="M653.20 197.83Q650.82 197.83 649.42 196.44Q648.02 195.05 648.02 192.55L648.02 189.53Q648.02 187.01 649.41 185.63Q650.80 184.25 653.20 184.25Q655.60 184.25 656.99 185.63Q658.38 187.01 658.38 189.53L658.38 192.55Q658.38 195.05 656.98 196.44Q655.58 197.83 653.20 197.83M653.20 195.91Q654.62 195.91 655.42 195.12Q656.22 194.33 656.22 192.79L656.22 189.29Q656.22 187.75 655.42 186.96Q654.62 186.17 653.20 186.17Q651.81 186.17 650.99 186.96Q650.18 187.75 650.18 189.29L650.18 192.79Q650.18 194.33 650.99 195.12Q651.81 195.91 653.20 195.91" fill="white" fill-opacity="0.7"/>
<path d="M665.25 197.64L663.09 197.64L663.09 184.44L665.25 184.44L665.25 186.96L665.30 186.96Q665.46 185.69 666.38 184.94Q667.29 184.20 668.82 184.20Q670.89 184.20 672 185.44Q673.12 186.67 673.12 188.95L673.12 190.08L670.96 190.08L670.96 188.95Q670.96 186.07 668.15 186.07Q666.74 186.07 665.99 186.89Q665.25 187.70 665.25 189.24" fill="white" fill-opacity="0.7"/>
<path d="M692.61 197.64L690.40 197.64L694.96 180.12L697.86 180.12L702.40 197.64L700.22 197.64L699.06 192.98L693.76 192.98L692.61 197.64M695.54 185.74L694.19 191.16L698.61 191.16L697.26 185.76Q696.88 184.22 696.66 183.19Q696.45 182.16 696.40 181.85Q696.35 182.16 696.14 183.19Q695.92 184.22 695.54 185.74" fill="white" fill-opacity="0.7"/>
<path d="M707.97 201.96L705.81 201.96L705.81 184.44L707.97 184.44L707.97 186.96L707.99 186.96Q708.16 185.66 709.12 184.93Q710.08 184.20 711.57 184.20Q713.56 184.20 714.74 185.51Q715.91 186.82 715.91 189.10L715.91 192.96Q715.91 195.24 714.74 196.56Q713.56 197.88 711.57 197.88Q710.08 197.88 709.12 197.14Q708.16 196.39 707.99 195.12L707.92 195.12L707.97 198.12L707.97 201.96M710.85 196.01Q712.22 196.01 712.98 195.29Q713.75 194.57 713.75 192.96L713.75 189.12Q713.75 187.49 712.98 186.78Q712.22 186.07 710.85 186.07Q709.53 186.07 708.75 186.91Q707.97 187.75 707.97 189.24L707.97 192.84Q707.97 194.33 708.75 195.17Q709.53 196.01 710.85 196.01" fill="white" fill-opacity="0.7"/>
<path d="M722.85 197.64L720.69 197.64L720.69 184.44L722.85 184.44L722.85 186.96L722.90 186.96Q723.06 185.69 723.98 184.94Q724.89 184.20 726.42 184.20Q728.49 184.20 729.60 185.44Q730.72 186.67 730.72 188.95L730.72 190.08L728.56 190.08L728.56 188.95Q728.56 186.07 725.75 186.07Q724.34 186.07 723.59 186.89Q722.85 187.70 722.85 189.24" fill="white" fill-opacity="0.7"/>
<path d="M745.72 197.64L734.44 197.64L734.44 195.67L739.12 195.67L739.12 186.41L734.92 186.41L734.92 184.44L741.28 184.44L741.28 195.67L745.72 195.67L745.72 197.64M739.96 182.06Q739.17 182.06 738.71 181.66Q738.26 181.25 738.26 180.55Q738.26 179.83 738.71 179.41Q739.17 178.99 739.96 178.99Q740.75 178.99 741.21 179.41Q741.66 179.83 741.66 180.55Q741.66 181.25 741.21 181.66Q740.75 182.06 739.96 182.06" fill="white" fill-opacity="0.7"/>
<path d="M760 197.64L755.92 197.64Q754.17 197.64 753.12 196.62Q752.08 195.60 752.08 193.92L752.08 182.09L747.52 182.09L747.52 180.12L754.24 180.12L754.24 193.92Q754.24 194.74 754.70 195.20Q755.15 195.67 755.92 195.67L760 195.67" fill="white" fill-opacity="0.7"/>
<path d="M781.65 197.88Q779.61 197.88 778.41 196.74Q777.21 195.60 777.21 193.75Q777.21 192.53 777.76 191.62Q778.31 190.70 779.30 190.19Q780.28 189.67 781.55 189.67L785.63 189.67L785.63 188.64Q785.63 186.07 782.82 186.07Q781.58 186.07 780.81 186.53Q780.04 186.98 779.99 187.80L777.83 187.80Q777.95 186.24 779.28 185.22Q780.62 184.20 782.82 184.20Q785.22 184.20 786.51 185.35Q787.79 186.50 787.79 188.57L787.79 197.64L785.66 197.64L785.66 195.24L785.61 195.24Q785.42 196.46 784.38 197.17Q783.35 197.88 781.65 197.88M782.18 196.06Q783.76 196.06 784.70 195.29Q785.63 194.52 785.63 193.20L785.63 191.35L781.79 191.35Q780.74 191.35 780.08 191.99Q779.42 192.62 779.42 193.68Q779.42 194.78 780.15 195.42Q780.88 196.06 782.18 196.06" fill="white" fill-opacity="0.7"/>
<path d="M794.37 197.64L792.21 197.64L792.21 184.44L794.37 184.44L794.37 186.96L794.39 186.96Q794.56 185.64 795.47 184.92Q796.38 184.20 797.90 184.20Q799.89 184.20 801.06 185.42Q802.24 186.65 802.24 188.76L802.24 197.64L800.08 197.64L800.08 189.14Q800.08 187.63 799.32 186.83Q798.57 186.02 797.27 186.02Q795.93 186.02 795.15 186.86Q794.37 187.70 794.37 189.24" fill="white" fill-opacity="0.7"/>
<path d="M810.83 197.88Q808.86 197.88 807.68 196.56Q806.49 195.24 806.49 192.98L806.49 189.12Q806.49 186.84 807.66 185.52Q808.84 184.20 810.83 184.20Q812.32 184.20 813.29 184.94Q814.26 185.69 814.46 186.96L814.48 186.96L814.43 183.96L814.43 180.12L816.59 180.12L816.59 197.64L814.43 197.64L814.43 195.12L814.41 195.12Q814.24 196.42 813.28 197.15Q812.32 197.88 810.83 197.88M811.55 196.01Q812.90 196.01 813.66 195.17Q814.43 194.33 814.43 192.84L814.43 189.24Q814.43 187.75 813.66 186.91Q812.90 186.07 811.55 186.07Q810.18 186.07 809.42 186.78Q808.65 187.49 808.65 189.12L808.65 192.96Q808.65 194.57 809.42 195.29Q810.18 196.01 811.55 196.01" fill="white" fill-opacity="0.7"/>
<path d="M839.68 197.88Q837.16 197.88 835.72 196.46Q834.28 195.05 834.28 192.60L836.44 192.60Q836.44 194.21 837.29 195.08Q838.14 195.96 839.68 195.96Q841.22 195.96 842.07 195.08Q842.92 194.21 842.92 192.60L842.92 180.12L845.08 180.12L845.08 192.60Q845.08 195.05 843.63 196.46Q842.18 197.88 839.68 197.88" fill="white" fill-opacity="0.7"/>
<path d="M854.78 197.88Q852.50 197.88 851.13 196.52Q849.76 195.17 849.76 192.84L849.76 184.44L851.92 184.44L851.92 192.84Q851.92 194.28 852.69 195.13Q853.46 195.98 854.78 195.98Q856.12 195.98 856.90 195.13Q857.68 194.28 857.68 192.84L857.68 184.44L859.84 184.44L859.84 192.84Q859.84 195.17 858.45 196.52Q857.06 197.88 854.78 197.88" fill="white" fill-opacity="0.7"/>
<path d="M866.37 197.64L864.21 197.64L864.21 184.44L866.37 184.44L866.37 186.96L866.39 186.96Q866.56 185.64 867.47 184.92Q868.38 184.20 869.90 184.20Q871.89 184.20 873.06 185.42Q874.24 186.65 874.24 188.76L874.24 197.64L872.08 197.64L872.08 189.14Q872.08 187.63 871.32 186.83Q870.57 186.02 869.27 186.02Q867.93 186.02 867.15 186.86Q866.37 187.70 866.37 189.24" fill="white" fill-opacity="0.7"/>
<path d="M883.60 197.88Q881.27 197.88 879.84 196.48Q878.42 195.07 878.42 192.60L878.42 189.48Q878.42 187.01 879.84 185.60Q881.27 184.20 883.60 184.20Q885.16 184.20 886.32 184.82Q887.49 185.45 888.14 186.58Q888.78 187.70 888.78 189.24L888.78 191.59L880.53 191.59L880.53 192.84Q880.53 194.30 881.37 195.16Q882.21 196.01 883.60 196.01Q884.80 196.01 885.58 195.54Q886.36 195.07 886.53 194.28L888.69 194.28Q888.47 195.94 887.08 196.91Q885.69 197.88 883.60 197.88M880.53 189.24L880.53 189.91L886.67 189.91L886.67 189.24Q886.67 187.68 885.87 186.83Q885.06 185.98 883.60 185.98Q882.14 185.98 881.33 186.83Q880.53 187.68 880.53 189.24" fill="white" fill-opacity="0.7"/>
<path d="M917.85 197.64L907.26 197.64L907.26 195.65L913.10 189.41Q914.37 188.06 914.90 187.01Q915.42 185.95 915.42 184.94Q915.42 183.50 914.60 182.65Q913.77 181.80 912.35 181.80Q910.89 181.80 910.04 182.68Q909.18 183.55 909.18 185.04L907.02 185.04Q907.10 182.66 908.54 181.27Q909.98 179.88 912.35 179.88Q914.78 179.88 916.20 181.25Q917.63 182.62 917.63 184.97Q917.63 186.22 916.95 187.61Q916.26 189 914.61 190.73L909.88 195.67L917.85 195.67" fill="white" fill-opacity="0.7"/>
<path d="M926.80 197.88Q924.38 197.88 922.95 196.48Q921.52 195.07 921.52 192.72L921.52 185.04Q921.52 182.69 922.95 181.28Q924.38 179.88 926.80 179.88Q929.22 179.88 930.65 181.28Q932.08 182.69 932.08 185.04L932.08 192.72Q932.08 194.28 931.43 195.44Q930.78 196.61 929.60 197.24Q928.41 197.88 926.80 197.88M926.80 196.03Q928.24 196.03 929.12 195.11Q929.99 194.18 929.99 192.72L929.99 185.04Q929.99 183.58 929.12 182.65Q928.24 181.73 926.80 181.73Q925.36 181.73 924.48 182.65Q923.61 183.58 923.61 185.04L923.61 192.72Q923.61 194.18 924.48 195.11Q925.36 196.03 926.80 196.03M926.80 190.20Q926.15 190.20 925.76 189.84Q925.36 189.48 925.36 188.81Q925.36 188.16 925.76 187.81Q926.15 187.46 926.80 187.46Q927.45 187.46 927.84 187.81Q928.24 188.16 928.24 188.81Q928.24 189.48 927.84 189.84Q927.45 190.20 926.80 190.20" fill="white" fill-opacity="0.7"/>
<path d="M946.96 197.64L936.16 197.64L936.16 195.67L940.91 195.67L940.91 181.99L936.16 185.54L936.16 183.07L940.12 180.12L943.07 180.12L943.07 195.67L946.96 195.67" fill="white" fill-opacity="0.7"/>
<path d="M955.60 197.88Q953.94 197.88 952.67 197.23Q951.40 196.58 950.69 195.42Q949.98 194.26 949.98 192.74Q949.98 191.09 950.93 189.89Q951.88 188.69 953.46 188.42L953.46 188.35Q952.10 188.04 951.28 186.97Q950.46 185.90 950.46 184.51Q950.46 183.14 951.11 182.10Q951.76 181.06 952.92 180.47Q954.09 179.88 955.60 179.88Q957.14 179.88 958.29 180.47Q959.44 181.06 960.09 182.10Q960.74 183.14 960.74 184.51Q960.74 185.90 959.92 186.97Q959.10 188.04 957.74 188.35L957.74 188.42Q959.32 188.69 960.27 189.89Q961.22 191.09 961.22 192.74Q961.22 194.26 960.51 195.42Q959.80 196.58 958.54 197.23Q957.28 197.88 955.60 197.88M955.60 187.51Q956.94 187.51 957.76 186.72Q958.58 185.93 958.58 184.66Q958.58 183.38 957.76 182.59Q956.94 181.80 955.60 181.80Q954.28 181.80 953.45 182.59Q952.62 183.38 952.62 184.66Q952.62 185.93 953.45 186.72Q954.28 187.51 955.60 187.51M955.60 195.94Q957.14 195.94 958.10 195.04Q959.06 194.14 959.06 192.70Q959.06 191.23 958.10 190.33Q957.14 189.43 955.60 189.43Q954.06 189.43 953.10 190.33Q952.14 191.23 952.14 192.70Q952.14 194.14 953.10 195.04Q954.06 195.94 955.60 195.94" fill="white" fill-opacity="0.7"/>
<path d="M984.40 197.88Q982.07 197.88 980.64 196.48Q979.22 195.07 979.22 192.60L979.22 189.48Q979.22 187.01 980.64 185.60Q982.07 184.20 984.40 184.20Q985.96 184.20 987.12 184.82Q988.29 185.45 988.94 186.58Q989.58 187.70 989.58 189.24L989.58 191.59L981.33 191.59L981.33 192.84Q981.33 194.30 982.17 195.16Q983.01 196.01 984.40 196.01Q985.60 196.01 986.38 195.54Q987.16 195.07 987.33 194.28L989.49 194.28Q989.27 195.94 987.88 196.91Q986.49 197.88 984.40 197.88M981.33 189.24L981.33 189.91L987.47 189.91L987.47 189.24Q987.47 187.68 986.67 186.83Q985.86 185.98 984.40 185.98Q982.94 185.98 982.13 186.83Q981.33 187.68 981.33 189.24" fill="white" fill-opacity="0.7"/>
<path d="M995.34 197.64L992.80 197.64L997.48 190.85L993.09 184.44L995.63 184.44L998.25 188.52Q998.42 188.78 998.57 189.10Q998.73 189.41 998.82 189.60Q998.90 189.41 999.05 189.10Q999.21 188.78 999.38 188.52L1001.99 184.44L1004.54 184.44L1000.14 190.87L1004.80 197.64L1002.26 197.64L999.42 193.32Q999.26 193.06 999.10 192.71Q998.94 192.36 998.82 192.14Q998.73 192.36 998.55 192.71Q998.37 193.06 998.18 193.32" fill="white" fill-opacity="0.7"/>
<path d="M1012.05 197.88Q1010.01 197.88 1008.81 196.74Q1007.61 195.60 1007.61 193.75Q1007.61 192.53 1008.16 191.62Q1008.71 190.70 1009.70 190.19Q1010.68 189.67 1011.95 189.67L1016.03 189.67L1016.03 188.64Q1016.03 186.07 1013.22 186.07Q1011.98 186.07 1011.21 186.53Q1010.44 186.98 1010.39 187.80L1008.23 187.80Q1008.35 186.24 1009.68 185.22Q1011.02 184.20 1013.22 184.20Q1015.62 184.20 1016.91 185.35Q1018.19 186.50 1018.19 188.57L1018.19 197.64L1016.06 197.64L1016.06 195.24L1016.01 195.24Q1015.82 196.46 1014.78 197.17Q1013.75 197.88 1012.05 197.88M1012.58 196.06Q1014.16 196.06 1015.10 195.29Q1016.03 194.52 1016.03 193.20L1016.03 191.35L1012.19 191.35Q1011.14 191.35 1010.48 191.99Q1009.82 192.62 1009.82 193.68Q1009.82 194.78 1010.55 195.42Q1011.28 196.06 1012.58 196.06" fill="white" fill-opacity="0.7"/>
<path d="M1023.86 197.64L1021.84 197.64L1021.84 184.44L1023.71 184.44L1023.71 186.19L1023.76 186.19Q1023.88 185.30 1024.47 184.75Q1025.06 184.20 1025.97 184.20Q1026.83 184.20 1027.43 184.70Q1028.03 185.21 1028.30 186.07L1028.32 186.07Q1028.49 185.21 1029.08 184.70Q1029.66 184.20 1030.58 184.20Q1031.85 184.20 1032.60 185.15Q1033.36 186.10 1033.36 187.61L1033.36 197.64L1031.34 197.64L1031.34 187.58Q1031.34 186.79 1030.96 186.32Q1030.58 185.86 1029.90 185.86Q1029.26 185.86 1028.87 186.31Q1028.49 186.77 1028.49 187.56L1028.49 197.64L1026.71 197.64L1026.71 187.58Q1026.71 186.79 1026.33 186.32Q1025.94 185.86 1025.30 185.86Q1024.62 185.86 1024.24 186.31Q1023.86 186.77 1023.86 187.56" fill="white" fill-opacity="0.7"/>
<path d="M1042.53 197.83L1041.47 197.83Q1039.26 197.83 1038.05 196.84Q1036.84 195.84 1036.84 194.02L1039 194.02Q1039 194.93 1039.65 195.44Q1040.30 195.96 1041.47 195.96L1042.53 195.96Q1043.73 195.96 1044.39 195.43Q1045.05 194.90 1045.05 193.94Q1045.05 192.24 1043.49 192.02L1039.84 191.50Q1038.50 191.30 1037.75 190.38Q1037.01 189.46 1037.01 187.94Q1037.01 186.22 1038.20 185.23Q1039.38 184.25 1041.47 184.25L1042.53 184.25Q1044.45 184.25 1045.66 185.20Q1046.87 186.14 1046.97 187.68L1044.78 187.68Q1044.74 186.98 1044.12 186.53Q1043.51 186.07 1042.53 186.07L1041.47 186.07Q1040.37 186.07 1039.74 186.58Q1039.12 187.08 1039.12 187.94Q1039.12 189.34 1040.39 189.53L1043.80 190.01Q1047.16 190.49 1047.16 193.94Q1047.16 195.79 1045.95 196.81Q1044.74 197.83 1042.53 197.83" fill="white" fill-opacity="0.7"/>
<path d="M1056.40 197.88Q1055.51 197.88 1054.97 197.35Q1054.43 196.82 1054.43 195.98Q1054.43 195.10 1054.97 194.54Q1055.51 193.99 1056.40 193.99Q1057.29 193.99 1057.83 194.54Q1058.37 195.10 1058.37 195.98Q1058.37 196.82 1057.83 197.35Q1057.29 197.88 1056.40 197.88" fill="white" fill-opacity="0.7"/>
<path d="M76.11 136.06L66.42 136.06L84.56 65.98L97.14 65.98L115.18 136.06L105.49 136.06L101.07 117.82L80.53 117.82L76.11 136.06M87.54 88.92L82.45 109.95L99.15 109.95L94.16 89.02Q92.72 83.26 91.86 79.23Q90.99 75.20 90.80 73.76Q90.61 75.20 89.74 79.23Q88.88 83.26 87.54 88.92M137.55 136.06L128.05 136.06L128.05 65.98L150.80 65.98Q157.52 65.98 162.42 68.57Q167.31 71.16 170 75.82Q172.69 80.48 172.69 86.91Q172.69 93.24 170 97.90Q167.31 102.56 162.37 105.15Q157.42 107.74 150.80 107.74L137.55 107.74L137.55 136.06M137.55 74.43L137.55 99.29L150.80 99.29Q156.37 99.29 159.63 95.88Q162.90 92.48 162.90 86.91Q162.90 81.24 159.63 77.84Q156.37 74.43 150.80 74.43L137.55 74.43M225.10 136.06L186.90 136.06L186.90 127.42L201.20 127.42L201.20 74.62L186.90 74.62L186.90 65.98L225.10 65.98L225.10 74.62L210.80 74.62L210.80 127.42L225.10 127.42L225.10 136.06M263.98 137.02Q253.62 137.02 247.47 131.60Q241.33 126.17 241.33 116.67L250.83 116.67Q250.83 122.24 254.38 125.40Q257.94 128.57 263.98 128.57Q269.74 128.57 273.15 125.36Q276.56 122.14 276.56 116.76Q276.56 112.73 274.35 109.71Q272.14 106.68 268.11 105.63L257.74 102.84Q250.93 100.92 246.94 95.88Q242.96 90.84 242.96 83.93Q242.96 78.27 245.50 74Q248.05 69.72 252.66 67.37Q257.26 65.02 263.31 65.02Q269.46 65.02 274.11 67.37Q278.77 69.72 281.36 73.95Q283.95 78.17 283.95 83.74L274.54 83.74Q274.54 79.13 271.42 76.25Q268.30 73.37 263.31 73.37Q258.32 73.37 255.30 76.25Q252.27 79.13 252.27 83.74Q252.27 87.48 254.29 90.03Q256.30 92.57 259.95 93.63L270.61 96.51Q277.81 98.43 281.84 103.85Q285.87 109.28 285.87 116.76Q285.87 122.91 283.18 127.47Q280.50 132.03 275.55 134.52Q270.61 137.02 263.98 137.02M342.51 136.06L301.71 136.06L301.71 65.98L342.51 65.98L342.51 74.52L311.12 74.52L311.12 95.36L339.15 95.36L339.15 103.61L311.12 103.61L311.12 127.52L342.51 127.52L342.51 136.06M383.60 136.06L374.10 136.06L374.10 74.62L355.09 74.62L355.09 65.98L402.51 65.98L402.51 74.62L383.60 74.62L383.60 136.06M436.40 137.02Q426.51 137.02 421.18 131.55Q415.86 126.08 415.86 116.67L415.86 65.98L425.36 65.98L425.36 116.67Q425.36 122.24 428.10 125.40Q430.83 128.57 436.40 128.57Q441.87 128.57 444.70 125.40Q447.54 122.24 447.54 116.67L447.54 65.98L457.04 65.98L457.04 116.67Q457.04 126.17 451.71 131.60Q446.38 137.02 436.40 137.02M551.98 137.02Q542.29 137.02 536.58 131.60Q530.86 126.17 530.86 116.67L530.86 85.28Q530.86 75.87 536.58 70.44Q542.29 65.02 551.98 65.02Q561.58 65.02 567.30 70.49Q573.01 75.96 573.01 85.28L563.50 85.28Q563.50 79.61 560.43 76.54Q557.36 73.47 551.98 73.47Q546.51 73.47 543.44 76.54Q540.37 79.61 540.37 85.28L540.37 116.67Q540.37 122.43 543.44 125.50Q546.51 128.57 551.98 128.57Q557.36 128.57 560.43 125.50Q563.50 122.43 563.50 116.67L563.50 107.55L549.87 107.55L549.87 99.10L573.01 99.10L573.01 116.67Q573.01 126.08 567.30 131.55Q561.58 137.02 551.98 137.02M609.20 137.02Q599.60 137.02 594.03 131.45Q588.46 125.88 588.46 115.71L588.46 86.24Q588.46 76.16 594.03 70.59Q599.60 65.02 609.20 65.02Q618.80 65.02 624.37 70.54Q629.94 76.06 629.94 86.24L629.94 115.71Q629.94 125.88 624.37 131.45Q618.80 137.02 609.20 137.02M609.20 128.57Q614.58 128.57 617.50 125.50Q620.43 122.43 620.43 116.67L620.43 85.28Q620.43 79.61 617.55 76.54Q614.67 73.47 609.20 73.47Q603.73 73.47 600.85 76.54Q597.97 79.61 597.97 85.28L597.97 116.67Q597.97 122.43 600.90 125.50Q603.82 128.57 609.20 128.57M673.14 136.06L660.37 136.06L642.42 65.98L652.21 65.98L663.82 113.21Q664.98 117.72 665.79 121.90Q666.61 126.08 666.99 128.28Q667.28 126.08 668.19 121.85Q669.10 117.63 670.16 113.12L681.39 65.98L691.18 65.98L673.14 136.06M771.15 136.06L761.65 136.06L761.65 65.98L771.15 65.98L771.15 95.74L780.94 95.74L795.92 65.98L806.29 65.98L789.30 99.68L807.15 136.06L796.40 136.06L780.75 104.09L771.15 104.09L771.15 136.06M839.98 137.02Q829.62 137.02 823.47 131.60Q817.33 126.17 817.33 116.67L826.83 116.67Q826.83 122.24 830.38 125.40Q833.94 128.57 839.98 128.57Q845.74 128.57 849.15 125.36Q852.56 122.14 852.56 116.76Q852.56 112.73 850.35 109.71Q848.14 106.68 844.11 105.63L833.74 102.84Q826.93 100.92 822.94 95.88Q818.96 90.84 818.96 83.93Q818.96 78.27 821.50 74Q824.05 69.72 828.66 67.37Q833.26 65.02 839.31 65.02Q845.46 65.02 850.11 67.37Q854.77 69.72 857.36 73.95Q859.95 78.17 859.95 83.74L850.54 83.74Q850.54 79.13 847.42 76.25Q844.30 73.37 839.31 73.37Q834.32 73.37 831.30 76.25Q828.27 79.13 828.27 83.74Q828.27 87.48 830.29 90.03Q832.30 92.57 835.95 93.63L846.61 96.51Q853.81 98.43 857.84 103.85Q861.87 109.28 861.87 116.76Q861.87 122.91 859.18 127.47Q856.50 132.03 851.55 134.52Q846.61 137.02 839.98 137.02M918.51 136.06L877.71 136.06L877.71 65.98L918.51 65.98L918.51 74.52L887.12 74.52L887.12 95.36L915.15 95.36L915.15 103.61L887.12 103.61L887.12 127.52L918.51 127.52L918.51 136.06M976.11 136.06L935.31 136.06L935.31 65.98L976.11 65.98L976.11 74.52L944.72 74.52L944.72 95.36L972.75 95.36L972.75 103.61L944.72 103.61L944.72 127.52L976.11 127.52L976.11 136.06M1013.74 136.06L992.14 136.06L992.14 65.98L1012.40 65.98Q1022.10 65.98 1027.71 70.83Q1033.33 75.68 1033.33 84.12Q1033.33 89.60 1029.92 93.87Q1026.51 98.14 1021.14 99.10L1021.14 99.39Q1025.17 99.87 1028.29 102.27Q1031.41 104.67 1033.18 108.36Q1034.96 112.06 1034.96 116.48Q1034.96 125.50 1029.25 130.78Q1023.54 136.06 1013.74 136.06M1001.46 74.33L1001.46 95.55L1012.30 95.55Q1017.68 95.55 1020.75 92.72Q1023.82 89.88 1023.82 84.99Q1023.82 80 1020.75 77.16Q1017.68 74.33 1012.40 74.33L1001.46 74.33M1001.46 103.61L1001.46 127.71L1012.88 127.71Q1018.74 127.71 1022.10 124.59Q1025.46 121.47 1025.46 116.09Q1025.46 110.52 1022.10 107.07Q1018.74 103.61 1012.88 103.61L1001.46 103.61M1059.15 136.06L1049.65 136.06L1049.65 65.98L1059.15 65.98L1059.15 95.74L1068.94 95.74L1083.92 65.98L1094.29 65.98L1077.30 99.68L1095.15 136.06L1084.40 136.06L1068.75 104.09L1059.15 104.09L1059.15 136.06M1116.75 136.06L1107.34 136.06L1107.34 65.98L1129.04 65.98Q1135.47 65.98 1140.27 68.52Q1145.07 71.07 1147.76 75.63Q1150.45 80.19 1150.45 86.33Q1150.45 93.44 1146.85 98.52Q1143.25 103.61 1137.30 105.72L1151.41 136.06L1140.94 136.06L1127.60 106.78L1116.75 106.78L1116.75 136.06M1116.75 74.43L1116.75 98.33L1129.04 98.33Q1134.42 98.33 1137.54 95.07Q1140.66 91.80 1140.66 86.43Q1140.66 80.96 1137.49 77.69Q1134.32 74.43 1129.04 74.43" fill="url(#paint2_linear_0_1)"/>
<g id="Group 1">
<rect id="Rectangle 1" x="26" y="168" width="12" height="184" rx="5" fill="url(#paint3_linear_0_1)" fill-opacity="0.9"/>
</g>
<g id="Group 1_2">
<rect id="Rectangle 2" x="26" y="38" width="12" height="119" rx="5" fill="url(#paint4_linear_0_1)" fill-opacity="0.9"/>
</g>
<ellipse id="Ellipse 1" cx="148.5" cy="573" rx="215.5" ry="214" fill="url(#paint5_linear_0_1)" fill-opacity="0.4"/>
<rect id="Rectangle 3" x="1229" y="48" width="300" height="300" rx="25" fill="#FFFBFB" fill-opacity="0.9"/>
<g id="placeholder-logo"><g transform="translate(1229,48) translate(0.0,60.0) scale(1.2000)"><g fill="#666666">
  <path d="m88.05,27.65c-3.15,4 -3.2,51.2 -0.05,54.35c2.75,2.75 71.7,3.15 74.45,0.45c2.85,-2.9 2.3,-53.85 -0.65,-55.9c-1.95,-1.35 -7.15,-1.55 -36.95,-1.55l-34.7,0l-2.1,2.65zm69.45,3.35c0.65,0 1,8.6 1,23.75l0,23.75l-33,0l-33,0l-0.25,-23c-0.15,-12.6 -0.1,-23.45 0.15,-24.1c0.35,-0.85 8.9,-1.05 32.25,-0.75c17.55,0.2 32.3,0.35 32.85,0.35z"/>
  <path d="m99.15,37.3c-6.85,7.35 4.25,17.35 11.4,10.25c1.35,-1.35 2.45,-3.65 2.45,-5.05c0,-6.45 -9.35,-9.95 -13.85,-5.2z"/>
  <path d="m135,42.5c-0.7,0.85 -5.25,5.15 -10.1,9.6l-8.85,8.1l-3.2,-3.2l-3.15,-3.15l-6.35,6.3c-5.55,5.5 -6.35,6.75 -6.35,10.05l0,3.8l28.5,0l28.5,0l0,-8.6l0,-8.55l-8.15,-7.7c-9.35,-8.85 -9.15,-8.7 -10.85,-6.65zm7.25,15.2c0.95,0.9 1.75,2.9 1.75,4.45c6.35,-5.05 4.75,-7.15 4.9,-11.55c0.95,0 0,0 0,0l-6.65,7.1z"/>
  <path d="m53.65,110.75c0.1,4.8 0.45,8.65 0.75,8.5c0.35,-0.15 1.3,-0.25 2.1,-0.25c1.1,0 1.5,-1.2 1.5,-4.75l0,-4.75l3.25,5c4.9,7.5 6.2,6.75 6.55,-3.75c0.25,-8.15 0.15,-8.75 -1.7,-8.75c-1.65,0 -2.05,0.8 -2.3,4.75l-0.3,4.75l-2.8,-4.75c-4.85,-8.25 -7.25,-6.9 -7.05,4z"/>
  <path d="m91,108.9c0,9.65 0.3,10.1 6.1,10.1c5.8,0 7.15,-2.65 1.65,-3.2l-3.25,-0.3l-0.3,-6.75c-0.25,-5.95 -0.55,-6.75 -2.25,-6.75c-1.75,0 -1.95,0.7 -1.95,6.9z"/>
  <path d="m151,102.45c0,0.25 1,2.15 2.25,4.2c1.2,2.1 2.45,5.8 2.75,8.25c0.65,5.9 4,6.95 4,1.25c0.05,-2.1 1.25,-5.85 2.95,-8.9l2.9,-5.25l-2.5,0c-1.8,0 -2.8,0.85 -3.75,3.1l-1.3,3.05l-1.25,-3.05c-1.1,-2.6 -6.05,-4.8 -6.05,-2.65z"/>
  <path d="m191,107.45c0,9.05 3.4,8.85 4.25,-0.2c0.45,-5 0.35,-5.25 -1.9,-5.25c-2.2,0 -2.35,0.4 -2.35,5.45z"/>
  <path d="m180.8,104.75c-1.3,5.35 0.65,13.6 3.45,14.35c2.3,0.6 2.75,0.4 2.75,-1.2c0,-1.05 -0.45,-1.9 -1,-1.9c-0.55,0 -1,-1.6 -1,-3.5c0,-1.95 0.45,-3.5 1,-3.5c0.55,0 1,-0.7 1,-1.5c0,-0.85 -0.45,-1.5 -1,-1.5c-0.55,0 -1,-0.7 -1,-1.5c0,-2.1 -3.65,-1.9 -4.2,0.25z"/>
  <path d="m71.55,106.55c-2.2,2.25 -2.05,9.7 0.3,11.8c4.5,4.1 10.15,0.75 10.15,-6.1c0,-4.85 -2,-7.25 -6,-7.25c-1.55,0 -3.55,0.7 -4.45,1.55zm6.25,5.8c0.25,3.05 0,3.65 -1.6,3.65c-2.3,0 -3.25,-2.65 -2.05,-5.85c1.25,-3.35 3.3,-2.1 3.65,2.2z"/>
  <path d="m105.75,106.1c-2.5,1.45 -2.45,9.95 0.1,12.25c4.3,3.9 10.15,0.35 10.15,-6.2c0,-6 -5.15,-9.05 -10.25,-6.05zm6.05,6.25c0.25,3.05 0,3.65 -1.6,3.65c-2.3,0 -3.25,-2.65 -2.05,-5.85c1.25,-3.35 3.3,-2.1 3.65,2.2z"/>
  <path d="m119.2,106.2c-3.8,3.8 -0.4,12.55 4.4,11.35c1.9,-0.45 2.45,-0.3 2.15,0.65c-0.25,0.7 -1.55,1.2 -2.85,1.1c-4.05,-0.3 -5.35,0.45 -3.85,2.25c0.85,1.05 2.6,1.45 5.35,1.25l4.1,-0.3l0.3,-8.75l0.3,-8.75l-4.35,0c-2.4,0 -4.9,0.55 -5.55,1.2zm6.6,4.45c0.4,2.85 -2.15,4.85 -3.75,2.95c-0.9,-1.1 -0.9,-2 -0.05,-3.6c1.35,-2.5 3.4,-2.15 3.8,0.65z"/>
  <path d="m133.55,106.55c-2.2,2.25 -2.05,9.7 0.3,11.8c4.5,4.1 10.15,0.75 10.15,-6.1c0,-4.85 -2,-7.25 -6,-7.25c-1.55,0 -3.55,0.7 -4.45,1.55zm6.25,5.8c0.25,3.05 0,3.65 -1.6,3.65c-2.3,0 -3.25,-2.65 -2.05,-5.85c1.25,-3.35 3.3,-2.1 3.65,2.2z"/>
  <path d="m167.65,106.85c-3.9,4.3 -0.75,13.15 4.7,13.15c2.4,0 5.65,-2.75 5.65,-4.85c0,-1.4 -2.65,-1.55 -3.5,-0.15c-0.95,1.55 -4.5,1.15 -4.5,-0.5c0,-1.1 1.1,-1.5 4,-1.5c3.15,0 4,-0.35 4,-1.8c0,-5.3 -6.85,-8.25 -10.35,-4.35z"/>
  <path d="m191,117.5c0,2.15 0.4,2.6 2.25,2.3c1.5,-0.2 2.25,-1 2.25,-2.3c0,-1.3 -0.75,-2.1 -2.25,-2.3c-1.85,-0.3 -2.25,0.15 -2.25,2.3z"/>
 </g></g></g>
</g>
<defs>
<linearGradient id="paint0_linear_0_1" x1="0" y1="198" x2="1584" y2="198" gradientUnits="userSpaceOnUse">
<stop stop-color="#3D052C"/>
<stop offset="1"/>
</linearGradient>
<linearGradient id="paint1_linear_0_1" x1="323" y1="-224" x2="323" y2="352" gradientUnits="userSpaceOnUse">
<stop stop-color="#28F6F2" stop-opacity="0.4"/>
<stop offset="1" stop-color="#17908E" stop-opacity="0.7"/>
</linearGradient>
<linearGradient id="paint2_linear_0_1" x1="148.5" y1="38" x2="148.5" y2="140" gradientUnits="userSpaceOnUse">
<stop stop-color="white"/>
<stop offset="1" stop-color="#999999"/>
</linearGradient>
<linearGradient id="paint3_linear_0_1" x1="38" y1="260" x2="26" y2="260" gradientUnits="userSpaceOnUse">
<stop stop-color="#D9D9D9"/>
<stop offset="1" stop-color="#737373"/>
</linearGradient>
<linearGradient id="paint4_linear_0_1" x1="38" y1="97.5" x2="26" y2="97.5" gradientUnits="userSpaceOnUse">
<stop stop-color="#D9D9D9"/>
<stop offset="1" stop-color="#737373"/>
</linearGradient>
<linearGradient id="paint5_linear_0_1" x1="27.5" y1="434.5" x2="148.5" y2="787" gradientUnits="userSpaceOnUse">
<stop stop-color="#2E21BC"/>
<stop offset="1" stop-color="#150F56"/>
</linearGradient>
<clipPath id="clip0_0_1">
<rect width="1584" height="396" fill="white"/>
</clipPath>
</defs>
</svg>
